<svg width="1200" height="300" viewBox="0 0 1200 300" fill="none" xmlns="http://www.w3.org/2000/svg">
  <rect width="1200" height="300" fill="#fafafa"/>
  <g clip-path="url(#grid)">
    <pattern id="grid" x="0" y="0" width="40" height="40" patternUnits="userSpaceOnUse">
      <path d="M 40 0 L 0 0 0 40" fill="none" stroke="#e5e7eb" stroke-width="0.5"/>
    </pattern>
    <rect width="1200" height="300" fill="url(#grid)"/>
  </g>
  <defs>
    <linearGradient id="glow" x1="0" y1="0" x2="1" y2="1">
      <stop offset="0%" stop-color="#10b981" stop-opacity="0.06"/>
      <stop offset="50%" stop-color="#6366f1" stop-opacity="0.03"/>
      <stop offset="100%" stop-color="#10b981" stop-opacity="0"/>
    </linearGradient>
  </defs>
  <rect x="200" y="20" width="800" height="260" rx="30" fill="url(#glow)"/>
  <!-- Contribution graph simulation -->
  <rect x="280" y="150" width="14" height="14" rx="3" fill="#10b981" opacity="0.2"/>
  <rect x="302" y="150" width="14" height="14" rx="3" fill="#10b981" opacity="0.5"/>
  <rect x="324" y="150" width="14" height="14" rx="3" fill="#10b981" opacity="0.85"/>
  <rect x="346" y="150" width="14" height="14" rx="3" fill="#10b981" opacity="0.35"/>
  <rect x="368" y="150" width="14" height="14" rx="3" fill="#10b981" opacity="1"/>
  <rect x="390" y="150" width="14" height="14" rx="3" fill="#10b981" opacity="0.15"/>
  <rect x="412" y="150" width="14" height="14" rx="3" fill="#10b981" opacity="0.65"/>
  <rect x="280" y="172" width="14" height="14" rx="3" fill="#10b981" opacity="0.4"/>
  <rect x="302" y="172" width="14" height="14" rx="3" fill="#10b981" opacity="0.75"/>
  <rect x="324" y="172" width="14" height="14" rx="3" fill="#10b981" opacity="0.25"/>
  <rect x="346" y="172" width="14" height="14" rx="3" fill="#10b981" opacity="1"/>
  <rect x="368" y="172" width="14" height="14" rx="3" fill="#10b981" opacity="0.55"/>
  <rect x="390" y="172" width="14" height="14" rx="3" fill="#10b981" opacity="0.85"/>
  <rect x="412" y="172" width="14" height="14" rx="3" fill="#10b981" opacity="0.35"/>
  <rect x="280" y="194" width="14" height="14" rx="3" fill="#10b981" opacity="0.85"/>
  <rect x="302" y="194" width="14" height="14" rx="3" fill="#10b981" opacity="0.35"/>
  <rect x="324" y="194" width="14" height="14" rx="3" fill="#10b981" opacity="0.65"/>
  <rect x="346" y="194" width="14" height="14" rx="3" fill="#10b981" opacity="0.15"/>
  <rect x="368" y="194" width="14" height="14" rx="3" fill="#10b981" opacity="0.45"/>
  <rect x="390" y="194" width="14" height="14" rx="3" fill="#10b981" opacity="1"/>
  <rect x="412" y="194" width="14" height="14" rx="3" fill="#10b981" opacity="0.75"/>
  <rect x="280" y="216" width="14" height="14" rx="3" fill="#10b981" opacity="0.65"/>
  <rect x="302" y="216" width="14" height="14" rx="3" fill="#10b981" opacity="1"/>
  <rect x="324" y="216" width="14" height="14" rx="3" fill="#10b981" opacity="0.45"/>
  <rect x="346" y="216" width="14" height="14" rx="3" fill="#10b981" opacity="0.85"/>
  <rect x="368" y="216" width="14" height="14" rx="3" fill="#10b981" opacity="0.25"/>
  <rect x="390" y="216" width="14" height="14" rx="3" fill="#10b981" opacity="0.55"/>
  <rect x="412" y="216" width="14" height="14" rx="3" fill="#10b981" opacity="0.35"/>
  <!-- Grid continuation -->
  <rect x="440" y="150" width="14" height="14" rx="3" fill="#10b981" opacity="0.35"/>
  <rect x="462" y="150" width="14" height="14" rx="3" fill="#10b981" opacity="0.65"/>
  <rect x="484" y="150" width="14" height="14" rx="3" fill="#10b981" opacity="0.15"/>
  <rect x="506" y="150" width="14" height="14" rx="3" fill="#10b981" opacity="0.85"/>
  <rect x="528" y="150" width="14" height="14" rx="3" fill="#10b981" opacity="0.45"/>
  <rect x="550" y="150" width="14" height="14" rx="3" fill="#10b981" opacity="0.75"/>
  <rect x="440" y="172" width="14" height="14" rx="3" fill="#10b981" opacity="0.75"/>
  <rect x="462" y="172" width="14" height="14" rx="3" fill="#10b981" opacity="0.25"/>
  <rect x="484" y="172" width="14" height="14" rx="3" fill="#10b981" opacity="0.55"/>
  <rect x="506" y="172" width="14" height="14" rx="3" fill="#10b981" opacity="0.1"/>
  <rect x="528" y="172" width="14" height="14" rx="3" fill="#10b981" opacity="0.85"/>
  <rect x="550" y="172" width="14" height="14" rx="3" fill="#10b981" opacity="0.35"/>
  <rect x="440" y="194" width="14" height="14" rx="3" fill="#10b981" opacity="0.15"/>
  <rect x="462" y="194" width="14" height="14" rx="3" fill="#10b981" opacity="0.55"/>
  <rect x="484" y="194" width="14" height="14" rx="3" fill="#10b981" opacity="0.85"/>
  <rect x="506" y="194" width="14" height="14" rx="3" fill="#10b981" opacity="0.35"/>
  <rect x="528" y="194" width="14" height="14" rx="3" fill="#10b981" opacity="0.65"/>
  <rect x="550" y="194" width="14" height="14" rx="3" fill="#10b981" opacity="0.25"/>
  <rect x="440" y="216" width="14" height="14" rx="3" fill="#10b981" opacity="0.55"/>
  <rect x="462" y="216" width="14" height="14" rx="3" fill="#10b981" opacity="0.85"/>
  <rect x="484" y="216" width="14" height="14" rx="3" fill="#10b981" opacity="0.35"/>
  <rect x="506" y="216" width="14" height="14" rx="3" fill="#10b981" opacity="0.65"/>
  <rect x="528" y="216" width="14" height="14" rx="3" fill="#10b981" opacity="0.15"/>
  <rect x="550" y="216" width="14" height="14" rx="3" fill="#10b981" opacity="0.75"/>
  <rect x="580" y="172" width="14" height="14" rx="3" fill="#10b981" opacity="0.45"/>
  <rect x="602" y="172" width="14" height="14" rx="3" fill="#10b981" opacity="0.75"/>
  <rect x="580" y="194" width="14" height="14" rx="3" fill="#10b981" opacity="0.85"/>
  <rect x="602" y="194" width="14" height="14" rx="3" fill="#10b981" opacity="0.25"/>
  <rect x="580" y="216" width="14" height="14" rx="3" fill="#10b981" opacity="0.55"/>
  <rect x="602" y="216" width="14" height="14" rx="3" fill="#10b981" opacity="0.65"/>
  <rect x="580" y="150" width="14" height="14" rx="3" fill="#10b981" opacity="0.35"/>
  <rect x="602" y="150" width="14" height="14" rx="3" fill="#10b981" opacity="0.15"/>
  <text x="700" y="116" font-family="system-ui, -apple-system, sans-serif" font-size="72" font-weight="800" fill="#111827" letter-spacing="-3">gitlarp</text>
  <text x="700" y="148" font-family="system-ui, -apple-system, sans-serif" font-size="16" fill="#9ca3af" letter-spacing="8" text-transform="uppercase">AUTONOMOUS CONTRIBUTION GRAPH OPTIMIZATION</text>
  <text x="700" y="250" font-family="system-ui, -apple-system, sans-serif" font-size="14" fill="#d1d5db" font-style="italic">because consistency is the only metric that matters</text>
  <circle cx="160" cy="60" r="40" fill="none" stroke="#10b981" stroke-width="2" opacity="0.2"/>
  <circle cx="160" cy="60" r="28" fill="none" stroke="#6366f1" stroke-width="2" opacity="0.35"/>
  <circle cx="160" cy="60" r="16" fill="#10b981" opacity="0.75"/>
  <text x="160" y="65" font-family="system-ui, -apple-system, sans-serif" font-size="12" fill="#fafafa" text-anchor="middle" font-weight="bold">GL</text>
  <circle cx="850" cy="60" r="3" fill="#10b981" opacity="0.3"/>
  <circle cx="880" cy="50" r="2" fill="#6366f1" opacity="0.2"/>
  <circle cx="920" cy="70" r="2.5" fill="#10b981" opacity="0.15"/>
  <circle cx="790" cy="45" r="1.5" fill="#6366f1" opacity="0.3"/>
  <circle cx="760" cy="65" r="2" fill="#10b981" opacity="0.2"/>
  <circle cx="200" cy="230" r="2" fill="#10b981" opacity="0.15"/>
  <circle cx="220" cy="100" r="1.5" fill="#6366f1" opacity="0.2"/>
  <circle cx="240" cy="260" r="2.5" fill="#10b981" opacity="0.1"/>
</svg>
