<svg width="470" height="140" viewBox="0 0 470 140" fill="none" xmlns="http://www.w3.org/2000/svg">
  <rect width="470" height="140" fill="#fafafa"/>

  <!-- Contribution squares -->
  <g transform="translate(40, 35)">
    <rect x="0" y="0" width="10" height="10" rx="2" fill="#10b981" opacity="0.25"/>
    <rect x="14" y="0" width="10" height="10" rx="2" fill="#10b981" opacity="0.6"/>
    <rect x="28" y="0" width="10" height="10" rx="2" fill="#10b981" opacity="0.85"/>
    <rect x="42" y="0" width="10" height="10" rx="2" fill="#10b981" opacity="0.35"/>
    <rect x="56" y="0" width="10" height="10" rx="2" fill="#10b981" opacity="1"/>
    <rect x="70" y="0" width="10" height="10" rx="2" fill="#10b981" opacity="0.15"/>
    <rect x="84" y="0" width="10" height="10" rx="2" fill="#10b981" opacity="0.75"/>
    <rect x="98" y="0" width="10" height="10" rx="2" fill="#10b981" opacity="0.55"/>
    <rect x="112" y="0" width="10" height="10" rx="2" fill="#10b981" opacity="0.45"/>
    <rect x="126" y="0" width="10" height="10" rx="2" fill="#10b981" opacity="1"/>
    <rect x="140" y="0" width="10" height="10" rx="2" fill="#10b981" opacity="0.3"/>
    <rect x="154" y="0" width="10" height="10" rx="2" fill="#10b981" opacity="0.7"/>

    <rect x="0" y="14" width="10" height="10" rx="2" fill="#10b981" opacity="0.45"/>
    <rect x="14" y="14" width="10" height="10" rx="2" fill="#10b981" opacity="0.75"/>
    <rect x="28" y="14" width="10" height="10" rx="2" fill="#10b981" opacity="0.25"/>
    <rect x="42" y="14" width="10" height="10" rx="2" fill="#10b981" opacity="1"/>
    <rect x="56" y="14" width="10" height="10" rx="2" fill="#10b981" opacity="0.55"/>
    <rect x="70" y="14" width="10" height="10" rx="2" fill="#10b981" opacity="0.85"/>
    <rect x="84" y="14" width="10" height="10" rx="2" fill="#10b981" opacity="0.35"/>
    <rect x="98" y="14" width="10" height="10" rx="2" fill="#10b981" opacity="0.65"/>
    <rect x="112" y="14" width="10" height="10" rx="2" fill="#10b981" opacity="0.15"/>
    <rect x="126" y="14" width="10" height="10" rx="2" fill="#10b981" opacity="0.85"/>
    <rect x="140" y="14" width="10" height="10" rx="2" fill="#10b981" opacity="0.45"/>
    <rect x="154" y="14" width="10" height="10" rx="2" fill="#10b981" opacity="0.75"/>

    <rect x="0" y="28" width="10" height="10" rx="2" fill="#10b981" opacity="0.75"/>
    <rect x="14" y="28" width="10" height="10" rx="2" fill="#10b981" opacity="0.35"/>
    <rect x="28" y="28" width="10" height="10" rx="2" fill="#10b981" opacity="0.65"/>
    <rect x="42" y="28" width="10" height="10" rx="2" fill="#10b981" opacity="0.15"/>
    <rect x="56" y="28" width="10" height="10" rx="2" fill="#10b981" opacity="0.45"/>
    <rect x="70" y="28" width="10" height="10" rx="2" fill="#10b981" opacity="1"/>
    <rect x="84" y="28" width="10" height="10" rx="2" fill="#10b981" opacity="0.55"/>
    <rect x="98" y="28" width="10" height="10" rx="2" fill="#10b981" opacity="0.25"/>
    <rect x="112" y="28" width="10" height="10" rx="2" fill="#10b981" opacity="0.85"/>
    <rect x="126" y="28" width="10" height="10" rx="2" fill="#10b981" opacity="0.35"/>
    <rect x="140" y="28" width="10" height="10" rx="2" fill="#10b981" opacity="0.65"/>
    <rect x="154" y="28" width="10" height="10" rx="2" fill="#10b981" opacity="0.15"/>

    <rect x="0" y="42" width="10" height="10" rx="2" fill="#10b981" opacity="0.85"/>
    <rect x="14" y="42" width="10" height="10" rx="2" fill="#10b981" opacity="0.55"/>
    <rect x="28" y="42" width="10" height="10" rx="2" fill="#10b981" opacity="0.15"/>
    <rect x="42" y="42" width="10" height="10" rx="2" fill="#10b981" opacity="0.65"/>
    <rect x="56" y="42" width="10" height="10" rx="2" fill="#10b981" opacity="0.35"/>
    <rect x="70" y="42" width="10" height="10" rx="2" fill="#10b981" opacity="0.75"/>
    <rect x="84" y="42" width="10" height="10" rx="2" fill="#10b981" opacity="1"/>
    <rect x="98" y="42" width="10" height="10" rx="2" fill="#10b981" opacity="0.45"/>
    <rect x="112" y="42" width="10" height="10" rx="2" fill="#10b981" opacity="0.25"/>
    <rect x="126" y="42" width="10" height="10" rx="2" fill="#10b981" opacity="0.55"/>
    <rect x="140" y="42" width="10" height="10" rx="2" fill="#10b981" opacity="0.85"/>
    <rect x="154" y="42" width="10" height="10" rx="2" fill="#10b981" opacity="0.35"/>

    <rect x="0" y="56" width="10" height="10" rx="2" fill="#10b981" opacity="0.55"/>
    <rect x="14" y="56" width="10" height="10" rx="2" fill="#10b981" opacity="0.85"/>
    <rect x="28" y="56" width="10" height="10" rx="2" fill="#10b981" opacity="0.35"/>
    <rect x="42" y="56" width="10" height="10" rx="2" fill="#10b981" opacity="0.75"/>
    <rect x="56" y="56" width="10" height="10" rx="2" fill="#10b981" opacity="0.15"/>
    <rect x="70" y="56" width="10" height="10" rx="2" fill="#10b981" opacity="0.45"/>
    <rect x="84" y="56" width="10" height="10" rx="2" fill="#10b981" opacity="0.65"/>
    <rect x="98" y="56" width="10" height="10" rx="2" fill="#10b981" opacity="1"/>
    <rect x="112" y="56" width="10" height="10" rx="2" fill="#10b981" opacity="0.55"/>
    <rect x="126" y="56" width="10" height="10" rx="2" fill="#10b981" opacity="0.25"/>
    <rect x="140" y="56" width="10" height="10" rx="2" fill="#10b981" opacity="0.75"/>
    <rect x="154" y="56" width="10" height="10" rx="2" fill="#10b981" opacity="0.45"/>
  </g>

  <!-- Icon: 4-square block -->
  <g transform="translate(220, 42)">
    <rect x="0" y="0" width="36" height="36" rx="8" fill="#10b981" opacity="0.08"/>
    <rect x="0" y="0" width="36" height="36" rx="8" fill="none" stroke="#10b981" stroke-width="1.5" opacity="0.4"/>
    <rect x="6" y="6" width="10" height="10" rx="2" fill="#10b981" opacity="0.85"/>
    <rect x="20" y="6" width="10" height="10" rx="2" fill="#10b981" opacity="0.35"/>
    <rect x="6" y="20" width="10" height="10" rx="2" fill="#10b981" opacity="1"/>
    <rect x="20" y="20" width="10" height="10" rx="2" fill="#10b981" opacity="0.6"/>
  </g>

  <text x="275" y="66" font-family="'SF Mono', 'JetBrains Mono', 'Cascadia Code', monospace" font-size="34" font-weight="700" fill="#111827" letter-spacing="-1">gitlarp</text>
  <text x="275" y="87" font-family="system-ui, -apple-system, sans-serif" font-size="11" fill="#9ca3af" letter-spacing="3">CONTRIBUTION GRAPH</text>
</svg>
